<svg xmlns="http://www.w3.org/2000/svg" width="486" height="348" viewBox="0 0 486 348">
<style>svg { background: #fff; }</style>
<defs><marker id="arrow" viewBox="0 0 10 10" refX="10" refY="5" markerWidth="8" markerHeight="8" orient="auto-start-reverse"><path d="M 0 0 L 10 5 L 0 10 z" fill="#666"/></marker></defs>
<path d="M382.5,276.0 L382.5,246.0 L285.3,208.4" fill="none" stroke="#666" stroke-width="1.5" marker-end="url(#arrow)"/>
<path d="M216.8,276.0 L216.8,246.0 L216.8,216.0" fill="none" stroke="#666" stroke-width="1.5" marker-end="url(#arrow)"/>
<path d="M77.3,276.0 L77.3,246.0 L148.3,213.4" fill="none" stroke="#666" stroke-width="1.5" marker-end="url(#arrow)"/>
<path d="M216.8,148.0 L216.8,118.0 L216.8,88.0" fill="none" stroke="#666" stroke-width="1.5" marker-end="url(#arrow)"/>
<g><rect x="148.3" y="148.0" width="137" height="68" rx="6" fill="#f44336" stroke="#d32f2f" stroke-width="1.5"/><text x="216.8" y="170.0" text-anchor="middle" fill="#fff" font-family="system-ui,sans-serif" font-size="13" font-weight="bold">api-server</text><text x="216.8" y="186.0" text-anchor="middle" fill="#fff" font-family="system-ui,sans-serif" font-size="11">API Server</text><text x="216.8" y="202.0" text-anchor="middle" fill="#fff" font-family="system-ui,sans-serif" font-size="11">effective: red</text></g>
<g><rect x="299.0" y="276.0" width="167" height="52" rx="6" fill="#f44336" stroke="#d32f2f" stroke-width="1.5"/><text x="382.5" y="298.0" text-anchor="middle" fill="#fff" font-family="system-ui,sans-serif" font-size="13" font-weight="bold">database</text><text x="382.5" y="314.0" text-anchor="middle" fill="#fff" font-family="system-ui,sans-serif" font-size="11">PostgreSQL Primary</text></g>
<g><rect x="174.5" y="276.0" width="84.5" height="52" rx="6" fill="#64d177" stroke="#4caf50" stroke-width="1.5"/><text x="216.8" y="298.0" text-anchor="middle" fill="#1b5e20" font-family="system-ui,sans-serif" font-size="13" font-weight="bold">network</text><text x="216.8" y="314.0" text-anchor="middle" fill="#1b5e20" font-family="system-ui,sans-serif" font-size="11">Network</text></g>
<g><rect x="20.0" y="276.0" width="114.5" height="52" rx="6" fill="#64d177" stroke="#4caf50" stroke-width="1.5"/><text x="77.3" y="298.0" text-anchor="middle" fill="#1b5e20" font-family="system-ui,sans-serif" font-size="13" font-weight="bold">storage</text><text x="77.3" y="314.0" text-anchor="middle" fill="#1b5e20" font-family="system-ui,sans-serif" font-size="11">File System</text></g>
<g><rect x="137.0" y="20.0" width="159.5" height="68" rx="6" fill="#f44336" stroke="#d32f2f" stroke-width="1.5"/><text x="216.8" y="42.0" text-anchor="middle" fill="#fff" font-family="system-ui,sans-serif" font-size="13" font-weight="bold">worker</text><text x="216.8" y="58.0" text-anchor="middle" fill="#fff" font-family="system-ui,sans-serif" font-size="11">Background Worker</text><text x="216.8" y="74.0" text-anchor="middle" fill="#fff" font-family="system-ui,sans-serif" font-size="11">effective: red</text></g>
</svg>